# xmcd
#
# Track frame offsets:
#	150
#	18195
#	36540
#	55955
#	75497
#
# Disc length: 1322 seconds
#
# Revision: 9
# Processed by: cddbd v1.5.2PL0 Copyright (c) Steve Scherf et al.
# Submitted via: EasyCDDAExtractor 10.2.0.1
#
DISCID=35052805
DTITLE=Ayman - Nur eine Nacht CDM
DYEAR=2000
DGENRE=Rap - Hip Hop - Black
TTITLE0=Nur eine Nacht (Radio Edit)
TTITLE1=Nur eine Nacht (2 PM Edit)
TTITLE2=Nur eine Nacht (Rap Version)
TTITLE3=Nur eine Nacht (Miami Selacter Cut)
TTITLE4=Nur eine Nacht (Saturday-Night Mix)
EXTD=
EXTT0=
EXTT1=
EXTT2=
EXTT3=
EXTT4=
PLAYORDER=
